<svg xmlns="http://www.w3.org/2000/svg" xmlns:xlink="http://www.w3.org/1999/xlink" preserveAspectRatio="xMinYMin meet" viewBox="0 0 793 1121"><defs><clipPath id="a"><path clip-rule="evenodd" d="M0 841V-.92h595.32V841H0z"/></clipPath><clipPath id="b"><path clip-rule="evenodd" d="M0 332.32h595.32v-156H0z"/></clipPath><clipPath id="c"><path clip-rule="evenodd" d="M0 639.16h595.32v-218.4H0z"/></clipPath><clipPath id="d"><path clip-rule="evenodd" d="M0 779.56h595.32v-140.4H0z"/></clipPath></defs><g clip-path="url(#a)" transform="scale(1.33333)"><path d="M36 103.62h511.42V89.34H36zm0 15.6h124.34v-14.28H36zm52.584 675.436h157.58v-14.28H88.584z" fill="#FF0" fill-rule="evenodd"/><g clip-path="url(#b)"><image xlink:href="img_01.png" width="965" height="274" transform="matrix(.54228 0 0 .54307 36 179.98)"/></g><g clip-path="url(#c)"><image xlink:href="img_02.png" width="965" height="377" transform="matrix(.54228 0 0 .5427 36 427.68)"/></g><g clip-path="url(#d)"><image xlink:href="img_03.png" width="965" height="235" transform="matrix(.54228 0 0 .54128 36 645.625)"/></g></g></svg>